<?xml version="1.0" encoding="UTF-8"?>
<svg width="40px" height="40px" viewBox="0 0 40 40" version="1.1" xmlns="http://www.w3.org/2000/svg" xmlns:xlink="http://www.w3.org/1999/xlink">
    <!-- Generator: Sketch 52.2 (67145) - http://www.bohemiancoding.com/sketch -->
    <title>结束</title>
    <desc>Created with Sketch.</desc>
    <g id="结束" stroke="none" stroke-width="1" fill="none" fill-rule="evenodd">
        <path d="M20,38 C29.9411255,38 38,29.9411255 38,20 C38,10.0588745 29.9411255,2 20,2 C10.0588745,2 2,10.0588745 2,20 C2,29.9411255 10.0588745,38 20,38 Z M20,40 C8.954305,40 0,31.045695 0,20 C0,8.954305 8.954305,0 20,0 C31.045695,0 40,8.954305 40,20 C40,31.045695 31.045695,40 20,40 Z" id="椭圆形" fill="#000000" fill-rule="nonzero"></path>
        <path d="M13,13 L13,27 L27,27 L27,13 L13,13 Z M11,11 L29,11 L29,29 L11,29 L11,11 Z" id="矩形" fill="#000000" fill-rule="nonzero"></path>
    </g>
</svg>