<?xml version="1.0" encoding="UTF-8"?>
<svg width="40px" height="40px" viewBox="0 0 40 40" version="1.1" xmlns="http://www.w3.org/2000/svg" xmlns:xlink="http://www.w3.org/1999/xlink">
    <!-- Generator: Sketch 52.2 (67145) - http://www.bohemiancoding.com/sketch -->
    <title>等待</title>
    <desc>Created with Sketch.</desc>
    <g id="等待" stroke="none" stroke-width="1" fill="none" fill-rule="evenodd">
        <path d="M20,38 C29.9411255,38 38,29.9411255 38,20 C38,10.0588745 29.9411255,2 20,2 C10.0588745,2 2,10.0588745 2,20 C2,29.9411255 10.0588745,38 20,38 Z M20,40 C8.954305,40 0,31.045695 0,20 C0,8.954305 8.954305,0 20,0 C31.045695,0 40,8.954305 40,20 C40,31.045695 31.045695,40 20,40 Z" id="椭圆形" fill="#000000" fill-rule="nonzero"></path>
        <path d="M21,11.9801192 L19,11.9801192 L19,7 L20,7 C27.1797017,7 33,12.8202983 33,20 C33,27.1797017 27.1797017,33 20,33 C12.8202983,33 7,27.1797017 7,20 C7,16.4157602 8.45902279,13.0615841 10.9921873,10.6266497 L12.3781679,12.0685435 C10.2333626,14.1301784 9,16.9655798 9,20 C9,26.0751322 13.9248678,31 20,31 C26.0751322,31 31,26.0751322 31,20 C31,14.2619574 26.6065,9.55007179 21,9.04484302 L21,11.9801192 Z" id="路径" fill="#000000" fill-rule="nonzero"></path>
        <path d="M14.2707722,14.6842711 C13.8928598,14.2815297 13.9129876,13.6486847 14.3157289,13.2707722 C14.7184703,12.8928598 15.3513153,12.9129876 15.7292278,13.3157289 L22.2706603,20.2869345 C22.6485728,20.6896759 22.6284449,21.3225209 22.2257036,21.7004333 C21.8229622,22.0783458 21.1901172,22.058218 20.8122048,21.6554766 L14.2707722,14.6842711 Z" id="路径-23" fill="#000000" fill-rule="nonzero"></path>
    </g>
</svg>