<?xml version="1.0" encoding="utf-8"?>
<!-- created with bpmn-js / http://bpmn.io -->
<!DOCTYPE svg PUBLIC "-//W3C//DTD SVG 1.1//EN" "http://www.w3.org/Graphics/SVG/1.1/DTD/svg11.dtd">
<svg xmlns="http://www.w3.org/2000/svg" xmlns:xlink="http://www.w3.org/1999/xlink" width="467" height="1040" viewBox="364 -454 467 1040" version="1.1"><defs><marker id="sequenceflow-end-white-black-7mrtzeqxllrcgi3rhf3uw946w" viewBox="0 0 20 20" refX="11" refY="10" markerWidth="10" markerHeight="10" orient="auto"><path d="M 1 5 L 11 10 L 1 15 Z" style="fill: black; stroke-width: 1px; stroke-linecap: round; stroke-dasharray: 10000, 1; stroke: black;"/></marker></defs><g class="djs-group"><g class="djs-element djs-connection" data-element-id="Flow_171sldz" style="display: block;"><g class="djs-visual"><path d="m  660,-412L660,-381 L590,-381 L590,-350 " style="fill: none; stroke-width: 2px; stroke: black; stroke-linejoin: round; marker-end: url('#sequenceflow-end-white-black-7mrtzeqxllrcgi3rhf3uw946w');"/></g><polyline points="660,-412 660,-381 590,-381 590,-350 " class="djs-hit djs-hit-stroke" style="fill: none; stroke-opacity: 0; stroke: white; stroke-width: 15px;"/><rect x="584" y="-418" width="82" height="74" class="djs-outline" style="fill: none;"/></g></g><g class="djs-group"><g class="djs-element djs-connection" data-element-id="Flow_1umggue" style="display: block;"><g class="djs-visual"><path d="m  660,-412L660,-381 L730,-381 L730,-350 " style="fill: none; stroke-width: 2px; stroke: black; stroke-linejoin: round; marker-end: url('#sequenceflow-end-white-black-7mrtzeqxllrcgi3rhf3uw946w');"/></g><polyline points="660,-412 660,-381 730,-381 730,-350 " class="djs-hit djs-hit-stroke" style="fill: none; stroke-opacity: 0; stroke: white; stroke-width: 15px;"/><rect x="654" y="-418" width="82" height="74" class="djs-outline" style="fill: none;"/></g></g><g class="djs-group"><g class="djs-element djs-connection" data-element-id="Flow_1tz2gmu" style="display: block;"><g class="djs-visual"><path d="m  590,-270L590,-242 L660,-242 L660,-215 " style="fill: none; stroke-width: 2px; stroke: black; stroke-linejoin: round; marker-end: url('#sequenceflow-end-white-black-7mrtzeqxllrcgi3rhf3uw946w');"/></g><polyline points="590,-270 590,-242 660,-242 660,-215 " class="djs-hit djs-hit-stroke" style="fill: none; stroke-opacity: 0; stroke: white; stroke-width: 15px;"/><rect x="584" y="-276" width="82" height="67" class="djs-outline" style="fill: none;"/></g></g><g class="djs-group"><g class="djs-element djs-connection" data-element-id="Flow_0lot9hf" style="display: block;"><g class="djs-visual"><path d="m  730,-270L730,-242 L660,-242 L660,-215 " style="fill: none; stroke-width: 2px; stroke: black; stroke-linejoin: round; marker-end: url('#sequenceflow-end-white-black-7mrtzeqxllrcgi3rhf3uw946w');"/></g><polyline points="730,-270 730,-242 660,-242 660,-215 " class="djs-hit djs-hit-stroke" style="fill: none; stroke-opacity: 0; stroke: white; stroke-width: 15px;"/><rect x="654" y="-276" width="82" height="67" class="djs-outline" style="fill: none;"/></g></g><g class="djs-group"><g class="djs-element djs-connection" data-element-id="Flow_0ct3ax4" style="display: block;"><g class="djs-visual"><path d="m  660,-185L660,-120 " style="fill: none; stroke-width: 2px; stroke: black; stroke-linejoin: round; marker-end: url('#sequenceflow-end-white-black-7mrtzeqxllrcgi3rhf3uw946w');"/></g><polyline points="660,-185 660,-120 " class="djs-hit djs-hit-stroke" style="fill: none; stroke-opacity: 0; stroke: white; stroke-width: 15px;"/><rect x="654" y="-191" width="12" height="77" class="djs-outline" style="fill: none;"/></g></g><g class="djs-group"><g class="djs-element djs-connection" data-element-id="Flow_1ao5fq0" style="display: block;"><g class="djs-visual"><path d="m  660,-20L660,45 " style="fill: none; stroke-width: 2px; stroke: black; stroke-linejoin: round; marker-end: url('#sequenceflow-end-white-black-7mrtzeqxllrcgi3rhf3uw946w');"/></g><polyline points="660,-20 660,45 " class="djs-hit djs-hit-stroke" style="fill: none; stroke-opacity: 0; stroke: white; stroke-width: 15px;"/><rect x="654" y="-26" width="12" height="77" class="djs-outline" style="fill: none;"/></g></g><g class="djs-group"><g class="djs-element djs-connection" data-element-id="Flow_1m9xk5g" style="display: block;"><g class="djs-visual"><path d="m  660,95L660,140 " style="fill: none; stroke-width: 2px; stroke: black; stroke-linejoin: round; marker-end: url('#sequenceflow-end-white-black-7mrtzeqxllrcgi3rhf3uw946w');"/></g><polyline points="660,95 660,140 " class="djs-hit djs-hit-stroke" style="fill: none; stroke-opacity: 0; stroke: white; stroke-width: 15px;"/><rect x="654" y="89" width="12" height="57" class="djs-outline" style="fill: none;"/></g></g><g class="djs-group"><g class="djs-element djs-connection" data-element-id="Flow_0xl8cbq" style="display: block;"><g class="djs-visual"><path d="m  660,200L660,260 " style="fill: none; stroke-width: 2px; stroke: black; stroke-linejoin: round; marker-end: url('#sequenceflow-end-white-black-7mrtzeqxllrcgi3rhf3uw946w');"/></g><polyline points="660,200 660,260 " class="djs-hit djs-hit-stroke" style="fill: none; stroke-opacity: 0; stroke: white; stroke-width: 15px;"/><rect x="654" y="194" width="12" height="72" class="djs-outline" style="fill: none;"/></g></g><g class="djs-group"><g class="djs-element djs-connection" data-element-id="Flow_0jsx1ke" style="display: block;"><g class="djs-visual"><path d="m  660,340L660,400 " style="fill: none; stroke-width: 2px; stroke: black; stroke-linejoin: round; marker-end: url('#sequenceflow-end-white-black-7mrtzeqxllrcgi3rhf3uw946w');"/></g><polyline points="660,340 660,400 " class="djs-hit djs-hit-stroke" style="fill: none; stroke-opacity: 0; stroke: white; stroke-width: 15px;"/><rect x="654" y="334" width="12" height="72" class="djs-outline" style="fill: none;"/></g></g><g class="djs-group"><g class="djs-element djs-connection" data-element-id="Flow_0etw74z" style="display: block;"><g class="djs-visual"><path d="m  710,300L780,300 L780,70 L685,70 " style="fill: none; stroke-width: 2px; stroke: black; stroke-linejoin: round; marker-end: url('#sequenceflow-end-white-black-7mrtzeqxllrcgi3rhf3uw946w');"/></g><polyline points="710,300 780,300 780,70 685,70 " class="djs-hit djs-hit-stroke" style="fill: none; stroke-opacity: 0; stroke: white; stroke-width: 15px;"/><rect x="679" y="64" width="107" height="242" class="djs-outline" style="fill: none;"/></g></g><g class="djs-group"><g class="djs-element djs-connection" data-element-id="Flow_16qf281" style="display: block;"><g class="djs-visual"><path d="m  610,-70L490,-70 " style="fill: none; stroke-width: 2px; stroke: black; stroke-linejoin: round; marker-end: url('#sequenceflow-end-white-black-7mrtzeqxllrcgi3rhf3uw946w');"/></g><polyline points="610,-70 490,-70 " class="djs-hit djs-hit-stroke" style="fill: none; stroke-opacity: 0; stroke: white; stroke-width: 15px;"/><rect x="484" y="-76" width="132" height="12" class="djs-outline" style="fill: none;"/></g></g><g class="djs-group"><g class="djs-element djs-shape" data-element-id="Activity_1tucmp9" style="display: block;" transform="matrix(1 0 0 1 540 -350)"><g class="djs-visual"><rect width="100" height="80" rx="0" ry="0" style="stroke: rgb(0, 0, 0); stroke-width: 2px; fill: rgb(246, 248, 250);"/><circle cx="6" cy="6" r="6" transform="translate(75, 10)" style="fill: red;"/><text lineHeight="1.2" class="djs-label" style="font-family: Arial, sans-serif; font-size: 12px; font-weight: normal; fill: black;"><tspan x="26.5" y="43.599999999999994">物料输入</tspan></text></g><rect class="djs-hit djs-hit-all" x="0" y="0" width="100" height="80" style="fill: none; stroke-opacity: 0; stroke: white; stroke-width: 15px;"/><rect x="-6" y="-6" width="112" height="92" class="djs-outline" style="fill: none;"/></g></g><g class="djs-group"><g class="djs-element djs-shape" data-element-id="Activity_0if8arw" style="display: block;" transform="matrix(1 0 0 1 680 -350)"><g class="djs-visual"><rect width="100" height="80" rx="0" ry="0" style="stroke: rgb(0, 0, 0); stroke-width: 2px; fill: rgb(246, 248, 250);"/><circle cx="6" cy="6" r="6" transform="translate(75, 10)" style="fill: red;"/><text lineHeight="1.2" class="djs-label" style="font-family: Arial, sans-serif; font-size: 12px; font-weight: normal; fill: black;"><tspan x="26.5" y="43.599999999999994">物料输入</tspan></text></g><rect class="djs-hit djs-hit-all" x="0" y="0" width="100" height="80" style="fill: none; stroke-opacity: 0; stroke: white; stroke-width: 15px;"/><rect x="-6" y="-6" width="112" height="92" class="djs-outline" style="fill: none;"/></g></g><g class="djs-group"><g class="djs-element djs-shape" data-element-id="Event_1hxxigh" style="display: block;" transform="matrix(1 0 0 1 642 -448)"><g class="djs-visual"><circle cx="18" cy="18" r="18" style="stroke: black; stroke-width: 2px; fill: rgb(246, 248, 250); fill-opacity: 0.95;"/></g><rect class="djs-hit djs-hit-all" x="0" y="0" width="36" height="36" style="fill: none; stroke-opacity: 0; stroke: white; stroke-width: 15px;"/><rect x="-6" y="-6" width="48" height="48" class="djs-outline" style="fill: none;"/></g></g><g class="djs-group"><g class="djs-element djs-shape" data-element-id="Activity_0n61n2k" style="display: block;" transform="matrix(1 0 0 1 495 -215)"><g class="djs-visual"><rect x="0" y="0" width="330" height="30" rx="10" ry="10" style="stroke: none; stroke-width: 2px; fill: rgb(246, 248, 250); fill-opacity: 0.95;"/><text lineHeight="1.2" class="djs-label" style="font-family: Arial, sans-serif; font-size: 12px; font-weight: normal; fill: black;"><tspan x="153" y="18.6">汇集</tspan></text><line x1="10" y1="10" x2="310" y2="10" style="stroke: black; stroke-width: 2px;"/><line x1="10" y1="20" x2="310" y2="20" style="stroke: black; stroke-width: 2px;"/></g><rect class="djs-hit djs-hit-all" x="0" y="0" width="330" height="30" style="fill: none; stroke-opacity: 0; stroke: white; stroke-width: 15px;"/><rect x="-6" y="-6" width="342" height="42" class="djs-outline" style="fill: none;"/></g></g><g class="djs-group"><g class="djs-element djs-shape" data-element-id="Activity_1c5d4wn" style="display: block;" transform="matrix(1 0 0 1 610 -120)"><g class="djs-visual"><rect x="0" y="0" width="100" height="100" rx="10" ry="10" style="stroke: none; stroke-width: 2px; fill: rgb(246, 248, 250); fill-opacity: 0.95;"/><text lineHeight="1.2" class="djs-label" style="font-family: Arial, sans-serif; font-size: 12px; font-weight: normal; fill: black;"><tspan x="38.09375" y="53.599999999999994">等待</tspan></text><path d="M50 0 A50 50 0 1  1 0 50" style="stroke: black; stroke-width: 2px; fill: none;"/><circle cx="50" cy="50" r="50" style="fill: none; stroke: black; stroke-width: 2px; stroke-dasharray: 2, 13;"/></g><rect class="djs-hit djs-hit-all" x="0" y="0" width="100" height="100" style="fill: none; stroke-opacity: 0; stroke: white; stroke-width: 15px;"/><rect x="-6" y="-6" width="112" height="112" class="djs-outline" style="fill: none;"/></g></g><g class="djs-group"><g class="djs-element djs-shape" data-element-id="Gateway_0ew61fz" style="display: block;" transform="matrix(1 0 0 1 635 45)"><g class="djs-visual"><polygon points="25,0 50,25 25,50 0,25" style="stroke: black; stroke-width: 2px; fill: white; fill-opacity: 0.95;"/><path d="m 23,10 0,12.5 -12.5,0 0,5 12.5,0 0,12.5 5,0 0,-12.5 12.5,0 0,-5 -12.5,0 0,-12.5 -5,0 z" style="fill: black; stroke-width: 1px; stroke: black;"/></g><rect class="djs-hit djs-hit-all" x="0" y="0" width="50" height="50" style="fill: none; stroke-opacity: 0; stroke: white; stroke-width: 15px;"/><rect x="-6" y="-6" width="62" height="62" class="djs-outline" style="fill: none;"/></g></g><g class="djs-group"><g class="djs-element djs-shape" data-element-id="Activity_1p823m3" style="display: block;" transform="matrix(1 0 0 1 610 140)"><g class="djs-visual"><rect x="0" y="0" width="100" height="60" rx="10" ry="10" style="stroke: none; stroke-width: 2px; fill: rgb(246, 248, 250); fill-opacity: 0.95;"/><text lineHeight="1.2" class="djs-label" style="font-family: Arial, sans-serif; font-size: 12px; font-weight: normal; fill: black;"><tspan x="26" y="33.6">循环开始</tspan></text><path d="M20 0 L80 0 L100 20 L100 60 L0 60 L0 20 Z" style="stroke: black; stroke-width: 2px; fill: none;"/></g><rect class="djs-hit djs-hit-all" x="0" y="0" width="100" height="60" style="fill: none; stroke-opacity: 0; stroke: white; stroke-width: 15px;"/><rect x="-6" y="-6" width="112" height="72" class="djs-outline" style="fill: none;"/></g></g><g class="djs-group"><g class="djs-element djs-shape" data-element-id="Activity_1qqresg" style="display: block;" transform="matrix(1 0 0 1 610 260)"><g class="djs-visual"><rect x="0" y="0" width="100" height="80" rx="10" ry="10" style="stroke: none; stroke-width: 2px; fill: rgb(246, 248, 250); fill-opacity: 0.95;"/><text lineHeight="1.2" class="djs-label" style="font-family: Arial, sans-serif; font-size: 12px; font-weight: normal; fill: black;"><tspan x="37.5" y="43.599999999999994">判断</tspan></text><polygon points="50,0 100,40 50,80 0,40" style="stroke: black; stroke-width: 2px; fill: none;"/></g><rect class="djs-hit djs-hit-all" x="0" y="0" width="100" height="80" style="fill: none; stroke-opacity: 0; stroke: white; stroke-width: 15px;"/><rect x="-6" y="-6" width="112" height="92" class="djs-outline" style="fill: none;"/></g></g><g class="djs-group"><g class="djs-element djs-shape" data-element-id="Activity_0uj6bnd" style="display: block;" transform="matrix(1 0 0 1 610 400)"><g class="djs-visual"><rect x="0" y="0" width="100" height="60" rx="10" ry="10" style="stroke: none; stroke-width: 2px; fill: rgb(246, 248, 250); fill-opacity: 0.95;"/><text lineHeight="1.2" class="djs-label" style="font-family: Arial, sans-serif; font-size: 12px; font-weight: normal; fill: black;"><tspan x="26" y="33.6">循环结束</tspan></text><path d="M20 0 L80 0 L100 20 L100 60 L0 60 L0 20 Z" style="stroke: black; stroke-width: 2px; fill: none;"/></g><rect class="djs-hit djs-hit-all" x="0" y="0" width="100" height="60" style="fill: none; stroke-opacity: 0; stroke: white; stroke-width: 15px;"/><rect x="-6" y="-6" width="112" height="72" class="djs-outline" style="fill: none;"/></g></g><g class="djs-group"><g class="djs-element djs-shape" data-element-id="Activity_1df9c4j" style="display: block;" transform="matrix(1 0 0 1 610 500)"><g class="djs-visual"><rect x="0" y="0" width="100" height="80" rx="10" ry="10" style="stroke: none; stroke-width: 2px; fill: rgb(246, 248, 250); fill-opacity: 0.95;"/><text lineHeight="1.2" class="djs-label" style="font-family: Arial, sans-serif; font-size: 12px; font-weight: normal; fill: black;"><tspan x="26.4609375" y="43.599999999999994">人工输入</tspan></text><path d="M0 20 L100 0 L100 80 L0 80 Z" style="stroke: black; stroke-width: 2px; fill: none;"/></g><rect class="djs-hit djs-hit-all" x="0" y="0" width="100" height="80" style="fill: none; stroke-opacity: 0; stroke: white; stroke-width: 15px;"/><rect x="-6" y="-6" width="112" height="92" class="djs-outline" style="fill: none;"/></g></g><g class="djs-group"><g class="djs-element djs-shape" data-element-id="Activity_0u1ee2g" style="display: block;" transform="matrix(1 0 0 1 370 -110)"><g class="djs-visual"><rect x="0" y="0" width="120" height="80" rx="10" ry="10" style="stroke: none; stroke-width: 2px; fill: rgb(246, 248, 250); fill-opacity: 0.95;"/><text lineHeight="1.2" class="djs-label" style="font-family: Arial, sans-serif; font-size: 12px; font-weight: normal; fill: black;"><tspan x="36.4609375" y="43.599999999999994">数据输入</tspan></text><path d="M0 0 L100 0 Q140 40, 100 80 L0 80 Q 40 40, 0 0" style="stroke: black; stroke-width: 2px; fill: none;"/></g><rect class="djs-hit djs-hit-all" x="0" y="0" width="120" height="80" style="fill: none; stroke-opacity: 0; stroke: white; stroke-width: 15px;"/><rect x="-6" y="-6" width="132" height="92" class="djs-outline" style="fill: none;"/></g></g></svg>